
<svg xmlns="http://www.w3.org/2000/svg" xmlns:xlink="http://www.w3.org/1999/xlink" width="500" zoomAndPan="magnify" viewBox="0 0 375 374.999991" height="500" preserveAspectRatio="xMidYMid meet" version="1.0"><defs><clipPath id="f6c82e318b"><path d="M 12.613281 9.289062 L 356.113281 9.289062 L 356.113281 364.789062 L 12.613281 364.789062 Z M 12.613281 9.289062 " clip-rule="nonzero"/></clipPath></defs><g clip-path="url(#f6c82e318b)"><path fill="#d2691e" d="M 705.851562 307.878906 L 642.722656 307.878906 C 592.996094 94.515625 401.613281 -64.429688 173.097656 -64.429688 C -55.414062 -64.429688 -246.8125 94.515625 -296.539062 307.878906 L -359.652344 307.878906 C -334.105469 284.714844 -319.960938 251.953125 -319.960938 218.191406 C -319.960938 204.71875 -322.199219 191.109375 -326.878906 177.863281 C -331.667969 164.308594 -333.910156 150.640625 -333.910156 137.308594 C -333.910156 71.96875 -280.082031 14.621094 -209.585938 16.410156 C -208.542969 16.4375 -207.5 16.449219 -206.46875 16.449219 C -152.996094 16.449219 -105.679688 -18.691406 -90.375 -70.195312 C -74.210938 -124.613281 -24.949219 -156.910156 26.058594 -156.910156 C 51.351562 -156.910156 77.082031 -148.976562 99.417969 -131.855469 C 121.144531 -115.203125 147.128906 -106.886719 173.085938 -106.886719 C 199.066406 -106.886719 225.023438 -115.203125 246.765625 -131.855469 C 314.164062 -183.5 412.390625 -151.585938 436.558594 -70.195312 C 451.859375 -18.691406 499.179688 16.449219 552.652344 16.449219 C 553.683594 16.449219 554.722656 16.4375 555.765625 16.410156 C 556.839844 16.378906 557.910156 16.367188 558.980469 16.367188 C 642.171875 16.367188 701.003906 98.828125 673.074219 177.863281 C 668.398438 191.109375 666.140625 204.734375 666.140625 218.191406 C 666.140625 251.96875 680.304688 284.730469 705.851562 307.878906 Z M 173.097656 900 C 7.078125 900 -139.355469 816.101562 -226.085938 688.378906 L -333.5 688.378906 C -339.179688 756.691406 -285.226562 819.1875 -212.8125 819.1875 C -211.742188 819.1875 -210.667969 819.171875 -209.585938 819.144531 C -208.542969 819.117188 -207.511719 819.101562 -206.46875 819.101562 C -152.996094 819.101562 -105.679688 854.257812 -90.375 905.761719 C -74.210938 960.179688 -24.949219 992.476562 26.058594 992.476562 C 51.351562 992.476562 77.082031 984.542969 99.417969 967.421875 C 121.144531 950.78125 147.128906 942.453125 173.085938 942.453125 C 180.511719 942.453125 187.933594 943.160156 195.257812 944.519531 C 196.304688 929.472656 197.28125 914.414062 198.214844 899.34375 C 189.894531 899.769531 181.523438 900 173.097656 900 Z M 679.695312 688.378906 L 572.28125 688.378906 C 489.941406 809.617188 353.824219 891.359375 198.214844 899.34375 C 197.28125 914.414062 196.304688 929.472656 195.257812 944.519531 C 213.558594 947.917969 231.238281 955.539062 246.765625 967.421875 C 269.101562 984.542969 294.832031 992.476562 320.125 992.476562 C 371.132812 992.476562 420.394531 960.179688 436.558594 905.761719 C 451.859375 854.257812 499.179688 819.101562 552.652344 819.101562 C 553.695312 819.101562 554.722656 819.117188 555.765625 819.144531 C 626.277344 820.949219 680.105469 763.597656 680.105469 698.242188 C 680.105469 694.972656 679.964844 691.675781 679.695312 688.378906 Z M 213.1875 684.152344 C 212.902344 686.972656 212.613281 689.789062 212.324219 692.605469 L 527.449219 692.605469 C 448.578125 794.648438 328.335938 858.046875 200.242188 865.941406 C 200.070312 868.792969 199.898438 871.640625 199.730469 874.488281 C 263.445312 870.882812 324.421875 854.289062 381.339844 825.015625 C 443.152344 793.222656 497.792969 746.847656 539.347656 690.902344 L 544.363281 684.152344 Z M 173.097656 866.785156 C 34.984375 866.785156 -96.832031 801.832031 -181.25 692.605469 L 212.324219 692.605469 C 212.613281 689.789062 212.902344 686.972656 213.1875 684.152344 L -198.164062 684.152344 L -193.152344 690.902344 C -151.59375 746.847656 -96.957031 793.222656 -35.140625 825.015625 C 29.660156 858.34375 99.722656 875.242188 173.097656 875.242188 C 182.027344 875.242188 190.902344 874.988281 199.730469 874.488281 C 199.898438 871.640625 200.070312 868.792969 200.242188 865.941406 C 191.226562 866.5 182.179688 866.785156 173.097656 866.785156 Z M 615.058594 306.839844 C 590.582031 210.34375 533.800781 123.058594 455.175781 61.0625 C 415.828125 30.035156 372.019531 5.878906 324.972656 -10.738281 C 276.296875 -27.929688 225.199219 -36.644531 173.097656 -36.644531 C 121 -36.644531 69.902344 -27.929688 21.226562 -10.738281 C -25.824219 5.878906 -69.628906 30.035156 -108.980469 61.0625 C -187.605469 123.058594 -244.386719 210.347656 -268.863281 306.839844 C -269.183594 308.105469 -268.902344 309.445312 -268.101562 310.476562 C -267.300781 311.503906 -266.070312 312.109375 -264.765625 312.109375 L 7.542969 312.109375 C 9.878906 312.109375 11.769531 310.214844 11.769531 307.878906 C 11.769531 305.546875 9.878906 303.652344 7.542969 303.652344 L -259.296875 303.652344 C -207.160156 107.980469 -30.136719 -28.191406 173.097656 -28.191406 C 376.332031 -28.191406 553.355469 107.980469 605.496094 303.652344 L 362.636719 303.652344 C 360.300781 303.652344 358.410156 305.546875 358.410156 307.878906 C 358.410156 310.214844 360.300781 312.109375 362.636719 312.109375 L 610.960938 312.109375 C 612.265625 312.109375 613.5 311.503906 614.300781 310.476562 C 615.101562 309.445312 615.382812 308.105469 615.058594 306.839844 Z M 52.761719 331.355469 C 40.625 325.453125 33.300781 319.125 29.699219 311.449219 C 25.984375 303.523438 27.578125 291.949219 35.113281 287.6875 L 183.582031 287.875 C 183.621094 284.757812 183.636719 281.636719 183.667969 278.515625 L 34.242188 279.90625 C 31.03125 279.78125 27.890625 277.976562 25.621094 274.953125 C 23.066406 271.550781 22.097656 267.335938 23.027344 263.683594 C 24.289062 258.722656 28.515625 254.726562 33.621094 252.980469 L 42.261719 252.242188 C 46.542969 252.316406 114.464844 253.539062 183.824219 254.34375 C 183.835938 250.769531 183.851562 247.199219 183.851562 243.625 C 117.753906 244.035156 52.875 244.652344 43.363281 244.480469 C 32.578125 236.988281 25.695312 226.746094 24.417969 216.234375 C 22.988281 204.464844 29.835938 192.570312 39.75 189.417969 L 77.285156 189.570312 L 183.855469 239.25 C 183.851562 236.386719 183.828125 233.519531 183.816406 230.652344 L 95.855469 189.644531 L 183.46875 190 C 183.429688 187.40625 183.378906 184.8125 183.339844 182.21875 L 39.753906 181.640625 C 34.472656 179.953125 28.53125 176.21875 27.121094 170.566406 C 26.488281 168.027344 27.453125 164.765625 29.472656 162.640625 C 30.296875 161.769531 32.007812 160.371094 34.160156 160.773438 C 34.300781 160.800781 34.445312 160.820312 34.589844 160.832031 C 34.621094 160.835938 34.65625 160.835938 34.6875 160.835938 C 34.761719 160.84375 34.835938 160.847656 34.914062 160.847656 L 182.945312 161.152344 C 182.839844 156.167969 182.730469 151.183594 182.609375 146.203125 C 118.203125 150.078125 39.75 153.082031 39.75 153.082031 C 24.21875 116.265625 43 74.457031 69.824219 51.976562 C 102.363281 24.707031 146.203125 18.578125 177.644531 18.300781 C 177.511719 15.710938 177.371094 13.121094 177.234375 10.527344 C 144.539062 10.855469 99.011719 17.367188 64.828125 46.015625 C 49.042969 59.246094 36.980469 77.375 30.863281 97.070312 C 24.785156 116.644531 24.976562 135.910156 31.382812 153.09375 C 28.621094 153.5625 25.996094 155 23.824219 157.289062 C 19.964844 161.363281 18.296875 167.3125 19.574219 172.445312 C 20.894531 177.753906 24.621094 182.402344 30 185.710938 C 26.492188 188.203125 23.464844 191.574219 21.136719 195.636719 C 17.382812 202.199219 15.804688 209.847656 16.695312 217.171875 C 17.933594 227.386719 23.390625 237.28125 32.023438 245.316406 C 24.085938 247.699219 17.5 253.867188 15.488281 261.765625 C 13.984375 267.679688 15.445312 274.355469 19.398438 279.621094 C 21.222656 282.050781 23.4375 283.992188 25.886719 285.367188 C 19.199219 293.167969 18.402344 305.671875 22.65625 314.75 C 28.433594 327.070312 40.660156 334.121094 49.355469 338.351562 C 82.378906 354.421875 119.503906 357.214844 154.742188 357.214844 C 163.980469 357.214844 173.085938 357.023438 181.960938 356.828125 C 182.050781 354.234375 182.125 351.636719 182.207031 349.042969 C 140.285156 349.964844 92.894531 350.886719 52.761719 331.355469 Z M 343.734375 248.644531 C 351.886719 240.898438 356.84375 229.921875 357.019531 218.609375 C 357.203125 206.785156 352.152344 195.164062 343.574219 187.113281 C 348.796875 183.296875 352.179688 178.917969 353.652344 174.046875 C 355.015625 169.542969 354.308594 164.214844 351.8125 160.136719 C 350.542969 158.074219 348.898438 156.433594 346.996094 155.308594 C 360.132812 112.113281 340.898438 61.128906 302.097656 37.800781 C 292.554688 32.0625 281.664062 27.535156 266.789062 23.113281 C 238.167969 14.613281 208.539062 10.371094 178.664062 10.511719 C 178.195312 10.515625 177.710938 10.523438 177.234375 10.527344 C 177.371094 13.121094 177.511719 15.710938 177.644531 18.300781 C 177.996094 18.300781 178.351562 18.292969 178.699219 18.292969 C 192.246094 18.230469 205.757812 19.105469 219.152344 20.882812 C 219.21875 20.949219 219.292969 21.007812 219.382812 21.058594 C 242.089844 34.199219 272.40625 41.328125 284.648438 67.046875 C 290.382812 79.089844 292.777344 93.742188 289.363281 106.777344 C 285.957031 119.785156 275.617188 130.050781 265.195312 137.980469 C 261.628906 140.695312 225.1875 143.640625 182.609375 146.203125 C 182.730469 151.183594 182.839844 156.167969 182.945312 161.152344 L 251.269531 161.292969 L 256.847656 161.304688 C 260.863281 163.703125 264.246094 167.023438 266.417969 171.46875 C 267.507812 173.703125 268.222656 176.15625 268.390625 178.644531 C 268.476562 179.878906 268.214844 181.304688 268.460938 182.5625 L 183.339844 182.21875 C 183.378906 184.8125 183.429688 187.40625 183.46875 190 L 276.007812 190.371094 L 185.980469 231.660156 L 183.816406 230.652344 C 183.828125 233.519531 183.851562 236.386719 183.855469 239.25 L 184.320312 239.46875 C 184.84375 239.710938 185.402344 239.835938 185.964844 239.835938 C 186.519531 239.835938 187.070312 239.714844 187.585938 239.480469 L 294.507812 190.445312 L 294.753906 190.449219 C 294.839844 190.546875 294.929688 190.640625 295.015625 190.742188 C 297.921875 194.230469 299.476562 198.730469 300.234375 203.15625 C 301.71875 211.851562 300.101562 220.992188 296.238281 228.878906 C 292.523438 236.46875 276.519531 243.292969 276.007812 243.292969 C 249.316406 243.273438 216.4375 243.425781 183.851562 243.625 C 183.851562 247.199219 183.835938 250.769531 183.824219 254.34375 C 217.226562 254.730469 250.960938 255.019531 278.082031 255.039062 C 279.09375 255.039062 280.078125 255.039062 281.054688 255.039062 C 287.597656 261.625 285.9375 269.332031 281.109375 277.609375 L 183.667969 278.515625 C 183.636719 281.636719 183.621094 284.757812 183.582031 287.875 L 286.109375 288.007812 C 286.210938 288.011719 286.316406 288.011719 286.417969 288.007812 L 288.914062 288.007812 C 290.871094 290.578125 291.875 294 292.171875 297.207031 C 292.761719 303.539062 290.9375 310.160156 288.199219 315.824219 C 282.277344 328.050781 271.519531 336.894531 259.453125 342.695312 C 255.433594 344.628906 251.9375 341.660156 247.707031 343.042969 L 182.976562 349.027344 C 182.722656 349.03125 182.464844 349.035156 182.207031 349.042969 C 182.125 351.636719 182.050781 354.234375 181.960938 356.828125 C 182.355469 356.820312 182.757812 356.8125 183.148438 356.804688 L 258.472656 355.140625 C 272.722656 354.828125 287.460938 354.503906 301.734375 350.738281 C 317.996094 346.453125 331.257812 337.871094 339.082031 326.582031 C 343.511719 320.1875 346.261719 312.398438 346.832031 304.65625 C 347.324219 297.953125 346.214844 291.597656 343.609375 286.023438 C 350.550781 281.992188 355.0625 274.046875 354.550781 265.921875 C 354.097656 258.765625 349.804688 252.238281 343.734375 248.644531 Z M 343.734375 248.644531 " fill-opacity="1" fill-rule="nonzero"/></g></svg>